HIERARCHY
ROOT Hips
{
 OFFSET 0.000000 0.000000 0.000000
 CHANNELS 6 Xposition Yposition Zposition Yrotation Xrotation Zrotation
 JOINT Chest
 {
  OFFSET 0.000000 9.585900 0.002600
  CHANNELS 3 Yrotation Xrotation Zrotation
  JOINT Chest2
  {
   OFFSET 0.000000 9.601200 -0.005300
   CHANNELS 3 Yrotation Xrotation Zrotation
   JOINT Chest3
   {
    OFFSET 0.000000 9.561800 0.000000
    CHANNELS 3 Yrotation Xrotation Zrotation
    JOINT Chest4
    {
     OFFSET 0.000000 9.552100 0.000000
     CHANNELS 3 Yrotation Xrotation Zrotation
     JOINT Neck
     {
      OFFSET 0.000000 14.453000 0.000000
      CHANNELS 3 Yrotation Xrotation Zrotation
      JOINT Head
      {
       OFFSET 0.000000 8.936500 -0.011300
       CHANNELS 3 Yrotation Xrotation Zrotation
       End Site
       {
        OFFSET 0.000000 17.073600 -0.006000
       }
      }
     }
     JOINT RightCollar
     {
      OFFSET -2.921100 9.558500 0.000000
      CHANNELS 3 Yrotation Xrotation Zrotation
      JOINT RightShoulder
      {
       OFFSET -13.519700 0.000000 0.000000
       CHANNELS 3 Yrotation Xrotation Zrotation
       JOINT RightElbow
       {
        OFFSET 0.000000 -29.696600 0.000000
        CHANNELS 3 Yrotation Xrotation Zrotation
        JOINT RightWrist
        {
         OFFSET 0.000000 -24.004700 0.000000
         CHANNELS 3 Yrotation Xrotation Zrotation
         End Site
         {
          OFFSET 0.000000 -17.728500 0.000000
         }
        }
       }
      }
     }
     JOINT LeftCollar
     {
      OFFSET 2.921100 9.558500 0.000000
      CHANNELS 3 Yrotation Xrotation Zrotation
      JOINT LeftShoulder
      {
       OFFSET 13.519700 0.000000 0.000000
       CHANNELS 3 Yrotation Xrotation Zrotation
       JOINT LeftElbow
       {
        OFFSET 0.000000 -29.696600 0.000000
        CHANNELS 3 Yrotation Xrotation Zrotation
        JOINT LeftWrist
        {
         OFFSET 0.000000 -24.004700 0.000000
         CHANNELS 3 Yrotation Xrotation Zrotation
         End Site
         {
          OFFSET 0.000000 -17.728500 0.000000
         }
        }
       }
      }
     }
    }
   }
  }
 }
 JOINT RightHip
 {
  OFFSET -7.771700 -0.012900 -0.001300
  CHANNELS 3 Yrotation Xrotation Zrotation
  JOINT RightKnee
  {
   OFFSET 0.000000 -40.869800 0.001200
   CHANNELS 3 Yrotation Xrotation Zrotation
   JOINT RightAnkle
   {
    OFFSET 0.000000 -39.717900 0.002100
    CHANNELS 3 Yrotation Xrotation Zrotation
    JOINT RightToe
    {
     OFFSET 0.000000 -4.965400 11.033500
     CHANNELS 3 Yrotation Xrotation Zrotation
     End Site
     {
      OFFSET 0.000000 -1.423100 5.872300
     }
    }
   }
  }
 }
 JOINT LeftHip
 {
  OFFSET 7.771700 -0.012900 -0.001300
  CHANNELS 3 Yrotation Xrotation Zrotation
  JOINT LeftKnee
  {
   OFFSET 0.000000 -40.869800 0.001200
   CHANNELS 3 Yrotation Xrotation Zrotation
   JOINT LeftAnkle
   {
    OFFSET 0.000000 -39.717900 0.002100
    CHANNELS 3 Yrotation Xrotation Zrotation
    JOINT LeftToe
    {
     OFFSET 0.000000 -4.965400 11.033500
     CHANNELS 3 Yrotation Xrotation Zrotation
     End Site
     {
      OFFSET 0.000000 -1.423100 5.872300
     }
    }
   }
  }
 }
}
MOTION
Frames: 11
Frame Time: 0.008333
-39.129678 50.711235 7.235309 162.192111 -27.218106 -2.442277 3.275081 14.544182 3.897648 0.275016 1.361466 0.196216 0.472827 2.329258 0.376311 2.916736 13.127164 2.294175 1.998212 15.482041 2.556668 2.865774 -7.048705 4.127482 8.826373 9.417957 -2.070502 14.878425 -42.809184 -30.977463 -47.397665 -13.369588 67.798947 -16.253813 -12.047768 -35.899068 -14.582630 6.567173 0.457761 7.994283 -35.262469 8.276851 53.154687 -7.633554 -77.872425 21.477467 -18.878842 23.347402 -0.249184 -53.144675 2.753540 -75.707329 81.054887 -77.182897 -3.394226 -10.014504 3.649502 -1.070640 1.439217 -0.431458 -7.801854 -58.019080 24.269303 99.749399 78.702796 97.483543 -15.734138 -19.788656 0.053939 -0.157526 -1.702800 -0.109681
-39.143985 50.713255 7.243849 162.269566 -27.293479 -2.447676 3.200438 14.604186 3.854408 0.275339 1.372312 0.203848 0.456560 2.281579 0.311247 2.915049 13.172502 2.308352 1.985737 15.420111 2.655522 2.795433 -7.167300 4.309593 8.851275 9.311103 -2.106973 15.103071 -42.790370 -31.176600 -47.570148 -13.870390 67.988286 -16.197518 -12.058526 -35.785048 -14.644810 6.505357 0.493526 7.771140 -35.298998 8.387503 53.410284 -7.916934 -78.104691 21.443667 -18.842209 23.254501 -0.195248 -53.063645 2.688760 -75.577886 81.025950 -77.071276 -3.479963 -9.916520 3.671663 -0.996672 1.378221 -0.405725 -7.823888 -57.940069 24.203631 99.634113 78.703453 97.360677 -15.788867 -19.848102 0.047399 -0.115267 -1.637619 -0.085976
-39.153212 50.714007 7.257422 162.294884 -27.347009 -2.465568 3.174017 14.620933 3.830152 0.274444 1.376288 0.202155 0.460903 2.301532 0.327648 2.890697 13.180717 2.267523 1.974610 15.364708 2.756523 2.723698 -7.269336 4.492120 8.877487 9.218258 -2.131502 15.291190 -42.782124 -31.316856 -47.805575 -14.475295 68.245530 -16.128870 -12.068825 -35.683030 -14.698124 6.432916 0.534387 7.550404 -35.331015 8.477806 53.700428 -8.320072 -78.370852 21.410083 -18.780899 23.138691 -0.151414 -53.008146 2.687513 -75.490468 80.993140 -76.992590 -3.503918 -9.887400 3.694342 -0.984340 1.377430 -0.399066 -7.868204 -57.879047 24.214439 99.505055 78.693188 97.218455 -15.797137 -19.849733 0.041667 -0.091065 -1.624485 -0.075494
-39.159821 50.715415 7.271278 162.355575 -27.400532 -2.512856 3.107904 14.602586 3.793713 0.274259 1.384807 0.199933 0.475721 2.353087 0.368646 2.873975 13.187862 2.234429 1.960575 15.320108 2.858323 2.652441 -7.355406 4.675980 8.895161 9.121165 -2.163372 15.429985 -42.764530 -31.377419 -48.110138 -15.186243 68.577025 -16.052563 -12.074291 -35.601705 -14.746611 6.352439 0.574453 7.354852 -35.364363 8.537812 54.006311 -8.826511 -78.666454 21.380346 -18.696906 23.009278 -0.163640 -52.950099 2.708676 -75.471924 80.955592 -76.959430 -3.553876 -9.866387 3.677604 -0.937082 1.375070 -0.362633 -7.952958 -57.818895 24.242463 99.323796 78.689955 97.040808 -15.834338 -19.846061 0.026979 -0.060969 -1.605357 -0.059444
-39.167241 50.719016 7.281085 162.331334 -27.479133 -2.506320 3.123752 14.646019 3.778070 0.277215 1.395415 0.204053 0.462316 2.330133 0.334191 2.882927 13.228956 2.246257 1.971275 15.300631 2.927589 2.559018 -7.441241 4.897238 8.908624 9.014554 -2.201044 15.519796 -42.741345 -31.362127 -48.484623 -15.996881 68.976781 -15.967416 -12.061489 -35.522317 -14.781271 6.260959 0.611135 7.193765 -35.402840 8.560012 54.317972 -9.415160 -78.991982 21.352556 -18.589437 22.870459 -0.085657 -52.867295 2.720697 -75.313773 80.913175 -76.826990 -3.566352 -9.833204 3.697660 -0.945596 1.378566 -0.338149 -7.932497 -57.737888 24.240921 99.289781 78.688251 97.002232 -15.872479 -19.841000 0.043401 -0.072877 -1.616154 -0.064462
-39.165632 50.724215 7.292553 162.352238 -27.562817 -2.571976 3.114604 14.697836 3.820037 0.283926 1.417483 0.216832 0.456908 2.320518 0.319756 2.871726 13.249811 2.204637 1.962887 15.264055 3.067973 2.500693 -7.478198 5.060670 8.918212 8.888876 -2.216933 15.550112 -42.724268 -31.262313 -48.917690 -16.895677 69.433255 -15.869420 -12.025899 -35.421585 -14.799580 6.161885 0.668345 7.071644 -35.450553 8.536980 54.629008 -10.066608 -79.348586 21.319126 -18.459581 22.722490 -0.078614 -52.767367 2.843368 -75.185560 80.816118 -76.710713 -3.677822 -9.790878 3.714468 -0.840071 1.381396 -0.313879 -8.043502 -57.641778 24.336394 99.191393 78.684380 96.901834 -15.864052 -19.837617 0.030972 -0.107785 -1.604524 -0.071381
-39.171862 50.725266 7.310465 162.377964 -27.585647 -2.603588 3.090472 14.693904 3.825501 0.280135 1.420247 0.211889 0.463185 2.331212 0.323259 2.874514 13.272135 2.196641 1.948130 15.241882 3.141386 2.423979 -7.502048 5.254379 8.903539 8.753527 -2.262405 15.502465 -42.719821 -31.064415 -49.397822 -17.874504 69.940167 -15.754659 -11.979934 -35.284397 -14.825194 6.046432 0.693923 6.999704 -35.510451 8.456104 54.927846 -10.765215 -79.734897 21.273343 -18.313155 22.560724 -0.083216 -52.734055 2.898821 -74.997184 80.764688 -76.558598 -3.694052 -9.760050 3.747107 -0.839218 1.389613 -0.309250 -8.118467 -57.611977 24.369990 99.007364 78.679374 96.724241 -15.870996 -19.821432 0.015400 -0.063709 -1.597269 -0.061095
-39.180129 50.726317 7.328644 162.325408 -27.602615 -2.584451 3.134893 14.688491 3.822131 0.279125 1.419583 0.205470 0.466765 2.345794 0.331620 2.877094 13.288403 2.183804 1.938561 15.228739 3.194551 2.339566 -7.511119 5.457848 8.883523 8.611404 -2.307436 15.370520 -42.726884 -30.760563 -49.922847 -18.934123 70.497323 -15.622015 -11.936789 -35.100875 -14.845068 5.927918 0.713181 6.986063 -35.581453 8.312611 55.205804 -11.496551 -80.148563 21.211932 -18.151118 22.375162 -0.007002 -52.708488 2.943162 -74.662367 80.703338 -76.311538 -3.640658 -9.713213 3.857069 -0.922190 1.402639 -0.350858 -8.105124 -57.591912 24.376546 98.921905 78.671566 96.636325 -15.838487 -19.807501 0.004734 -0.048638 -1.600437 -0.061009
-39.187974 50.730763 7.340927 162.315949 -27.652949 -2.573612 3.143180 14.731911 3.815506 0.277360 1.404899 0.197779 0.469181 2.361215 0.336510 2.881606 13.298693 2.169511 1.916681 15.229431 3.282684 2.277142 -7.506591 5.613718 8.859753 8.471810 -2.342962 15.168450 -42.737068 -30.357638 -50.499492 -20.084519 71.104912 -15.473742 -11.898315 -34.870151 -14.858787 5.813757 0.723460 7.023656 -35.660405 8.117112 55.468581 -12.252246 -80.585103 21.137487 -17.969423 22.155680 0.035348 -52.648724 2.954476 -74.485619 80.654828 -76.175835 -3.635526 -9.689034 3.901572 -0.931743 1.412028 -0.363304 -8.098642 -57.541687 24.344561 98.851910 78.654804 96.566298 -15.806070 -19.785407 -0.004293 -0.100784 -1.615856 -0.069951
-39.193120 50.738091 7.349047 162.322805 -27.730828 -2.575032 3.137895 14.782455 3.806593 0.278527 1.409493 0.197475 0.470847 2.368627 0.335831 2.888539 13.310891 2.158235 1.896259 15.237361 3.371574 2.221955 -7.482757 5.761817 8.834076 8.336375 -2.357540 14.917199 -42.741969 -29.870804 -51.130710 -21.335839 71.751624 -15.307742 -11.868131 -34.598042 -14.869858 5.712431 0.727365 7.094775 -35.748728 7.884703 55.730632 -13.031235 -81.035651 21.057529 -17.777623 21.893818 0.061679 -52.556949 2.973441 -74.371913 80.603636 -76.079263 -3.681412 -9.678913 3.916728 -0.887688 1.425953 -0.348851 -8.102864 -57.464372 24.317674 98.826265 78.636564 96.537539 -15.786157 -19.764624 0.000898 -0.158284 -1.638146 -0.085557
-39.196440 50.744053 7.360929 162.358312 -27.782265 -2.604313 3.114525 14.773687 3.802371 0.280472 1.415843 0.195281 0.474257 2.378953 0.332327 2.888837 13.350070 2.175625 1.878610 15.247243 3.441028 2.173414 -7.437105 5.901255 8.811927 8.205677 -2.367221 14.624473 -42.744670 -29.309027 -51.809229 -22.693831 72.417768 -15.121029 -11.850845 -34.286478 -14.882128 5.619629 0.714571 7.183091 -35.847341 7.632087 56.004091 -13.834282 -81.492256 20.975555 -17.591494 21.586406 0.048275 -52.487268 3.020332 -74.257141 80.540209 -75.979226 -3.728883 -9.671986 3.921858 -0.838239 1.444267 -0.322425 -8.154864 -57.408112 24.318565 98.700688 78.633423 96.423985 -15.796495 -19.759689 0.013508 -0.136693 -1.627462 -0.109566
